<svg width="77" height="69" viewBox="0 0 77 69" fill="none" xmlns="http://www.w3.org/2000/svg">
<g clip-path="url(#clip0_836:241)">
<path d="M46.7813 8.66019L32.2052 11.1595L28.3686 15.7098L33.5019 18.7221L37.3385 14.1718L46.3084 12.6337L51.4418 15.646L51.0145 18.3467C50.8053 19.6685 51.2075 20.9213 52.0345 21.9117L54.4813 13.1786L46.7813 8.66019Z" fill="#FE946F"/>
<path d="M8.9834 17.0876L9.95595 22.7595L24.5321 20.2602L16.8321 15.7418L8.9834 17.0876Z" fill="#FE946F"/>
<path d="M48.3754 4.49437L8.01074 11.4156L8.9833 17.0876L16.832 15.7418L24.532 20.2601L36.082 27.0377C38.2009 24.5247 37.6203 21.1388 34.7852 19.4752L33.5019 18.7221L28.3686 15.7098L32.2052 11.1595L46.7813 8.66017L54.4813 13.1786L52.0345 21.9117C52.7679 22.7899 53.8324 23.4637 55.1431 23.7694L59.9254 11.272L48.3754 4.49437Z" fill="#FFB398"/>
<path d="M62.4105 52.6898L37.7432 56.9195L38.0673 58.8101L62.7347 54.5805L62.4105 52.6898Z" fill="#2E5166"/>
<path d="M59.8438 51.1837L39.6614 54.6443C38.423 54.8567 37.5641 55.8753 37.7431 56.9195L62.4104 52.6898C62.2314 51.6456 61.0822 50.9714 59.8438 51.1837Z" fill="#3F708D"/>
<path d="M65.3013 56.0866L36.149 61.0853L36.4732 62.9759L65.6255 57.9772L65.3013 56.0866Z" fill="#2E5166"/>
<path d="M62.7347 54.5805L38.0674 58.8101C36.829 59.0225 35.9701 60.0411 36.1491 61.0853L65.3014 56.0866C65.1223 55.0424 63.9731 54.3681 62.7347 54.5805Z" fill="#3F708D"/>
<path d="M46.3486 33.0622L41.715 39.6955L54.6934 43.0972L47.4833 39.6795L46.997 36.8435L53.9676 37.108L53.5624 34.7447L46.3486 33.0622Z" fill="#E15D2D"/>
<path d="M54.6935 43.0972L41.7151 39.6955L46.3487 33.0623L53.5624 34.7447L53.9677 37.108L56.2912 37.1961L58.0474 33.9756L50.5095 30.4026L49.8611 26.6213L45.7004 29.281L40.7291 27.214L33.0693 43.1242L39.8102 48.7801L39.6615 54.6443L59.8438 51.1837L55.0213 43.2526L54.6935 43.0972Z" fill="#F88756"/>
<path d="M33.0693 43.1242L45.4164 47.8189L46.3889 53.4908L39.6615 54.6443L39.8102 48.7802L33.0693 43.1242Z" fill="#E15D2D"/>
<path d="M49.8611 26.6213L48.1049 29.8418L50.5095 30.4026L49.8611 26.6213Z" fill="#E15D2D"/>
<path d="M45.7004 29.281L41.2154 30.05L33.0693 43.1242L40.7291 27.214L45.7004 29.281Z" fill="#E15D2D"/>
<path d="M60.6035 10.4677L49.0535 3.69011C48.8129 3.54891 48.5106 3.49808 48.2133 3.54906L7.84863 10.4703L8.17282 12.361L48.0733 5.5193L58.5931 11.6924L54.4654 22.4795C52.8164 21.7007 51.8682 20.1214 52.1369 18.4213L52.5644 15.7209C52.62 15.3716 52.4496 15.0349 52.12 14.8416L46.9867 11.8293C46.746 11.6881 46.4437 11.6373 46.1464 11.6883L37.1765 13.2263C36.8792 13.2773 36.6111 13.4259 36.4313 13.6392L32.5947 18.1895C32.22 18.6339 32.3226 19.2322 32.8239 19.5263L34.1073 20.2794C36.1257 21.4643 36.7552 23.7188 35.7546 25.6432L25.2104 19.4558C24.9697 19.3146 24.6674 19.2638 24.3702 19.3148L9.79374 21.8142L10.1179 23.7048L24.2299 21.2851L35.4038 27.842C35.9052 28.1362 36.6148 28.0145 36.9894 27.5701C39.4792 24.6177 38.7946 20.625 35.4635 18.6708L35.0875 18.4502L37.9649 15.0375L46.0063 13.6586L50.2298 16.137L49.8918 18.2713C49.424 21.2262 51.4827 23.9304 54.7866 24.7009C54.9591 24.7412 55.136 24.7437 55.304 24.7149C55.7158 24.6443 56.0788 24.3853 56.2185 24.0202L61.0008 11.5228C61.1541 11.1216 60.994 10.6967 60.6035 10.4677Z" fill="black"/>
<path d="M63.7236 53.6171L63.5317 52.4976C63.3062 51.1824 62.0456 50.2675 60.5482 50.1956L56.0337 42.7711C55.9388 42.6159 55.7942 42.4881 55.6145 42.4035L48.5286 39.0446L48.3259 37.862L56.1764 38.16C56.6533 38.1771 57.1083 37.9384 57.3141 37.5606L59.0703 34.3401C59.3195 33.8835 59.1338 33.3603 58.6407 33.1265L51.5548 29.7677L50.9823 26.429C50.9261 26.1014 50.6724 25.8316 50.3128 25.7161C49.9528 25.6011 49.5367 25.6567 49.2146 25.8616L45.6288 28.1537L41.2723 26.3425C40.9906 26.2255 40.6592 26.221 40.3543 26.3232C40.0516 26.4284 39.8081 26.6349 39.6843 26.8923L32.0245 42.8024C31.8498 43.1644 31.9394 43.5682 32.2509 43.8299L38.6672 49.2137L38.546 54.0027C37.2303 54.5942 36.4032 55.8363 36.6219 57.1117L36.8139 58.2312C35.5787 58.846 34.8167 60.0467 35.0278 61.2775L35.352 63.1682C35.4415 63.6902 36.0161 64.0274 36.6353 63.9213L65.7876 58.9226C66.4068 58.8164 66.8362 58.307 66.7467 57.785L66.4225 55.8944C66.2115 54.6635 65.0931 53.7852 63.7236 53.6171ZM34.4013 42.8492L41.2885 28.544L45.157 30.1524C45.5338 30.3083 45.9925 30.2656 46.3468 30.0406L49.0021 28.3432L49.3882 30.5948C49.4363 30.8755 49.6298 31.116 49.9162 31.2518L56.5868 34.4138L55.6118 36.2022L47.1119 35.8797C46.7666 35.8676 46.4215 35.9914 46.1796 36.2168C45.9383 36.4426 45.826 36.7445 45.8759 37.0358L46.3622 39.8717C46.4103 40.1524 46.6038 40.3929 46.8902 40.5287L54.1533 43.9716L58.126 50.5051L40.8228 53.4721L40.9426 48.746C40.949 48.4902 40.836 48.2488 40.6285 48.0743L34.4013 42.8492ZM38.8644 56.7272C38.775 56.2061 39.2054 55.6956 39.8235 55.5897L60.0059 52.129C60.6239 52.023 61.1998 52.361 61.2892 52.8821L61.4513 53.8274L39.0265 57.6726L38.8644 56.7272ZM64.3421 57.2242L37.4324 61.8384L37.2703 60.893C37.1809 60.3719 37.6113 59.8614 38.2294 59.7555L62.8967 55.5258C63.5148 55.4198 64.0907 55.7578 64.1801 56.2789L64.3421 57.2242Z" fill="black"/>
</g>
<defs>
<clipPath id="clip0_836:241">
<rect width="68.2563" height="57.5471" fill="white" transform="translate(0 11.8161) rotate(-9.72977)"/>
</clipPath>
</defs>
</svg>
