<svg width="132" height="152" viewBox="0 0 132 152" fill="none" xmlns="http://www.w3.org/2000/svg">
<g id="Group 12">
<path id="Polygon 2" d="M2 47.4476L65.8179 13.2688L129.636 47.4476V115.552L65.8179 149.731L2 115.552V47.4476Z" fill="#FFFAFA" stroke="#19406F" stroke-width="4"/>
<path id="hi" d="M70.32 45.952C70.32 45.632 70.416 45.376 70.608 45.184C70.864 44.928 71.152 44.8 71.472 44.8H82.704C83.024 44.8 83.28 44.928 83.472 45.184C83.728 45.376 83.856 45.632 83.856 45.952V110.848C83.856 111.168 83.728 111.456 83.472 111.712C83.28 111.904 83.024 112 82.704 112H71.472C71.152 112 70.864 111.904 70.608 111.712C70.416 111.456 70.32 111.168 70.32 110.848V84.64C70.32 84.32 70.16 84.16 69.84 84.16H60.24C59.92 84.16 59.76 84.32 59.76 84.64V110.848C59.76 111.168 59.632 111.456 59.376 111.712C59.184 111.904 58.928 112 58.608 112H47.376C47.056 112 46.768 111.904 46.512 111.712C46.32 111.456 46.224 111.168 46.224 110.848V45.952C46.224 45.632 46.32 45.376 46.512 45.184C46.768 44.928 47.056 44.8 47.376 44.8H58.608C58.928 44.8 59.184 44.928 59.376 45.184C59.632 45.376 59.76 45.632 59.76 45.952V72.064C59.76 72.384 59.92 72.544 60.24 72.544H69.84C70.16 72.544 70.32 72.384 70.32 72.064V45.952ZM47.376 132C47.056 132 46.768 131.904 46.512 131.712C46.32 131.456 46.224 131.168 46.224 130.848V65.952C46.224 65.632 46.32 65.376 46.512 65.184C46.768 64.928 47.056 64.8 47.376 64.8H58.608C58.928 64.8 59.184 64.928 59.376 65.184C59.632 65.376 59.76 65.632 59.76 65.952V130.848C59.76 131.168 59.632 131.456 59.376 131.712C59.184 131.904 58.928 132 58.608 132H47.376Z" fill="#19406E"/>
<path id="." d="M77.4 40.3C75.7 40.3 74.275 39.75 73.125 38.65C72.025 37.5 71.475 36.075 71.475 34.375C71.475 32.625 72.025 31.2 73.125 30.1C74.225 29 75.65 28.45 77.4 28.45C79.15 28.45 80.575 29 81.675 30.1C82.775 31.2 83.325 32.625 83.325 34.375C83.325 36.075 82.75 37.5 81.6 38.65C80.5 39.75 79.1 40.3 77.4 40.3Z" fill="#19406E"/>
</g>
</svg>
